# xmcd
# Copyright (C) 1995-1998 Ti Kan
#
# Track frame offsets:
#       150
#       17756
#       34081
#       52542
#       69771
#
# Disc length: 1148 seconds
#
# Revision: 0
# Processed by: cddbd v1.5.2PL0 Copyright (c) Steve Scherf et al.
# Submitted via: CD-Transfer v1.0
#
DISCID=2d047a05
DTITLE=Alessa - 
DYEAR=07
DGENRE=
TTITLE0=Samstag Nacht
TTITLE1=Ich Lebe Wieder Neu
TTITLE2=Goodbye Adios Carinho
TTITLE3=In Der Welt Der Illusionen
TTITLE4=Der Ring Den Du Trägst
EXTD=
EXTT0=
EXTT1=
EXTT2=
EXTT3=
EXTT4=
PLAYORDER=
